<?xml version="1.0" encoding="UTF-8" standalone="no"?>
<!-- Generator: Adobe Illustrator 13.0.0, SVG Export Plug-In . SVG Version: 6.00 Build 14948)  -->

<svg
   version="1.1"
   id="Vector"
   x="0px"
   y="0px"
   width="66.851px"
   height="14.872px"
   viewBox="0 0 66.851 14.872"
   enable-background="new 0 0 66.851 14.872"
   xml:space="preserve"
   sodipodi:docname="License_plate_in_Russia.svg"
   inkscape:version="1.2.2 (b0a84865, 2022-12-01)"
   xmlns:inkscape="http://www.inkscape.org/namespaces/inkscape"
   xmlns:sodipodi="http://sodipodi.sourceforge.net/DTD/sodipodi-0.dtd"
   xmlns="http://www.w3.org/2000/svg"
   xmlns:svg="http://www.w3.org/2000/svg"><defs
   id="defs69" /><sodipodi:namedview
   id="namedview67"
   pagecolor="#ffffff"
   bordercolor="#000000"
   borderopacity="0.25"
   inkscape:showpageshadow="2"
   inkscape:pageopacity="0.0"
   inkscape:pagecheckerboard="0"
   inkscape:deskcolor="#d1d1d1"
   showgrid="false"
   inkscape:zoom="5.7416707"
   inkscape:cx="15.849046"
   inkscape:cy="17.851947"
   inkscape:window-width="1512"
   inkscape:window-height="945"
   inkscape:window-x="0"
   inkscape:window-y="37"
   inkscape:window-maximized="0"
   inkscape:current-layer="g48" />
<g
   id="g64">
	<g
   id="g50">
		<g
   id="g12">
			<g
   id="g8">
				<path
   fill="none"
   stroke="#FFFFFF"
   stroke-width="1.5"
   stroke-miterlimit="3.8637"
   d="M66.101,2.383v10.104      c0,0.901-0.831,1.633-1.854,1.633L2.604,14.122c-1.021,0-1.854-0.73-1.854-1.635V2.386c0-0.902,0.833-1.636,1.854-1.636h61.643      C65.27,0.75,66.101,1.483,66.101,2.383L66.101,2.383z"
   id="path2" />
				<path
   fill="#FFFFFF"
   d="M66.101,2.383v10.104c0,0.901-0.831,1.633-1.854,1.633L2.604,14.122c-1.021,0-1.854-0.73-1.854-1.635      V2.386c0-0.902,0.833-1.636,1.854-1.636h61.643C65.27,0.75,66.101,1.483,66.101,2.383L66.101,2.383z"
   id="path4" />
				<path
   fill="none"
   stroke="#000000"
   stroke-width="0.8705"
   stroke-miterlimit="3.8637"
   d="M66.101,2.383v10.104      c0,0.901-0.831,1.633-1.854,1.633L2.604,14.122c-1.021,0-1.854-0.73-1.854-1.635V2.386c0-0.902,0.833-1.636,1.854-1.636h61.643      C65.27,0.75,66.101,1.483,66.101,2.383L66.101,2.383z"
   id="path6" />
			</g>
			<path
   fill="#FFFFFF"
   stroke="#000000"
   stroke-width="0.8546"
   stroke-miterlimit="3.8637"
   d="M30.326,7.68"
   id="path10" />
		</g>
		
			<line
   fill-rule="evenodd"
   clip-rule="evenodd"
   fill="none"
   stroke="#000000"
   stroke-width="0.5127"
   stroke-miterlimit="3.8637"
   x1="49.53"
   y1="0.641"
   x2="49.53"
   y2="14.049"
   id="line14" />
		<path
   d="M3.372,6.641c0.608,0,0.969,0.454,0.969,1.022c0,0.454-0.36,0.908-0.969,0.908c-0.609,0-1.096-0.454-1.096-0.908    C2.276,7.095,2.763,6.641,3.372,6.641L3.372,6.641z"
   id="path16" />
		<path
   d="M63.429,6.641c0.627,0,1.126,0.454,1.126,1.022c0,0.45-0.499,0.904-1.126,0.904c-0.503,0-1.004-0.454-1.004-0.904    C62.425,7.095,62.926,6.641,63.429,6.641L63.429,6.641z"
   id="path18" />
		<g
   id="g48">
			<g
   id="g38">
				<g
   id="g24">
					<rect
   x="57.781"
   y="11.448"
   fill="#ED1C24"
   width="5.014"
   height="1.013"
   id="rect20" />
					<path
   fill="#ED1C24"
   d="M60.288,11.953"
   id="path22" />
				</g>
				<g
   id="g30">
					<rect
   x="57.783"
   y="10.532"
   fill="#0066B3"
   width="5.012"
   height="0.955"
   id="rect26" />
					<path
   fill="#023F88"
   d="M60.292,11.013"
   id="path28" />
				</g>
				<g
   id="g36">
					
						<rect
   x="57.781"
   y="9.656"
   fill="none"
   stroke="#000000"
   stroke-width="0.1615"
   stroke-miterlimit="3.8637"
   width="5.014"
   height="2.756"
   id="rect32" />
					<path
   fill="none"
   stroke="#000000"
   stroke-width="0.1615"
   stroke-miterlimit="3.8637"
   d="M60.288,11.033"
   id="path34" />
				</g>
			</g>
			
			
			<g
   id="g46">
				
					<path
   fill="none"
   stroke="#000000"
   stroke-width="0.3546"
   stroke-linecap="round"
   stroke-linejoin="round"
   stroke-miterlimit="2.6131"
   d="      M50.633,12.092v-1.877c0,0,0.383,0,0.736,0c0.354,0,0.64,0.145,0.64,0.445c0,0.304-0.197,0.51-0.651,0.51      c-0.45,0-0.725,0-0.725,0 M51.38,11.225l0.68,0.859 M53.06,10.215c0,0,0,0.574,0,1.115c0,0.542,0.366,0.75,0.709,0.75      c0.34,0,0.73-0.289,0.73-0.724c0-0.434,0-1.148,0-1.148 M56.771,10.418c0,0-0.293-0.301-0.696-0.28      c-0.351,0.018-0.507,0.25-0.473,0.482c0.033,0.233,0.347,0.381,0.619,0.472c0.275,0.09,0.67,0.174,0.678,0.521      c0.007,0.351-0.423,0.467-0.606,0.467c-0.183,0-0.462,0-0.753-0.251"
   id="path44" />
			</g>
		</g>
	</g>
	
	
	
	
	
	
</g>
</svg>
